<?xml version="1.0" encoding="UTF-8"?>
<svg xmlns="http://www.w3.org/2000/svg" viewBox="0 0 429.88 315.51">
  <defs>
    <style>
      .cls-1 {
        fill: #eb455f;
        font-family: LifeSavers-Bold, 'Life Savers';
        font-size: 90px;
        font-weight: 700;
      }

      .cls-2 {
        fill: #e94560;
        stroke-width: 0px;
      }
    </style>
  </defs>
  <g id="Calque_3" data-name="Calque 3">
    <text class="cls-1" transform="translate(65.63 192.91)"><tspan x="0" y="0">LeasArt</tspan></text>
  </g>
  <g id="Calque_4" data-name="Calque 4">
    <path class="cls-2" d="m295.52,213.89v2.84c0,1.07-.87,1.95-1.95,1.95H57.74c-1.07,0-1.95-.87-1.95-1.95v-113.06c0-1.07.87-1.95,1.95-1.95h235.84c1.07,0,1.95.87,1.95,1.95v1.74c0,1.07.87,1.95,1.95,1.95h0c1.07,0,1.95-.87,1.95-1.95v-7.38c0-1.07-.87-1.95-1.95-1.95H53.85c-1.07,0-1.95.87-1.95,1.95v124.34c0,1.07.87,1.95,1.95,1.95h243.62c1.07,0,1.95-.87,1.95-1.95v-8.49c0-1.07-.87-1.95-1.95-1.95h0c-1.07,0-1.95.87-1.95,1.95Z"/>
    <path class="cls-2" d="m305,213.89v15.65c0,1.07-.87,1.95-1.95,1.95H48.26c-1.07,0-1.95-.87-1.95-1.95V90.87c0-1.07.87-1.95,1.95-1.95h254.79c1.07,0,1.95.87,1.95,1.95v14.54c0,1.07.87,1.95,1.95,1.95h0c1.07,0,1.95-.87,1.95-1.95v-20.18c0-1.07-.87-1.95-1.95-1.95H44.37c-1.07,0-1.95.87-1.95,1.95v149.94c0,1.07.87,1.95,1.95,1.95h262.57c1.07,0,1.95-.87,1.95-1.95v-21.29c0-1.07-.87-1.95-1.95-1.95h0c-1.07,0-1.95.87-1.95,1.95Z"/>
  </g>
</svg>